<svg width="18" height="10" viewBox="0 0 18 10" fill="none" xmlns="http://www.w3.org/2000/svg">
<path d="M5.66663 4.99998C5.66663 5.22099 5.75442 5.43296 5.9107 5.58924C6.06698 5.74552 6.27895 5.83331 6.49996 5.83331H11.5C11.721 5.83331 11.9329 5.74552 12.0892 5.58924C12.2455 5.43296 12.3333 5.22099 12.3333 4.99998C12.3333 4.77897 12.2455 4.567 12.0892 4.41072C11.9329 4.25444 11.721 4.16665 11.5 4.16665H6.49996C6.27895 4.16665 6.06698 4.25444 5.9107 4.41072C5.75442 4.567 5.66663 4.77897 5.66663 4.99998ZM7.33329 7.49998H4.83329C4.17025 7.49998 3.53437 7.23659 3.06553 6.76775C2.59668 6.29891 2.33329 5.66302 2.33329 4.99998C2.33329 4.33694 2.59668 3.70105 3.06553 3.23221C3.53437 2.76337 4.17025 2.49998 4.83329 2.49998H7.33329C7.55431 2.49998 7.76627 2.41218 7.92255 2.2559C8.07883 2.09962 8.16663 1.88766 8.16663 1.66665C8.16663 1.44563 8.07883 1.23367 7.92255 1.07739C7.76627 0.921111 7.55431 0.833313 7.33329 0.833313H4.83329C3.72822 0.833313 2.66842 1.2723 1.88701 2.0537C1.10561 2.8351 0.666626 3.89491 0.666626 4.99998C0.666626 6.10505 1.10561 7.16486 1.88701 7.94626C2.66842 8.72766 3.72822 9.16665 4.83329 9.16665H7.33329C7.55431 9.16665 7.76627 9.07885 7.92255 8.92257C8.07883 8.76629 8.16663 8.55433 8.16663 8.33331C8.16663 8.1123 8.07883 7.90034 7.92255 7.74406C7.76627 7.58778 7.55431 7.49998 7.33329 7.49998ZM13.1666 0.833313H10.6666C10.4456 0.833313 10.2337 0.921111 10.0774 1.07739C9.92109 1.23367 9.83329 1.44563 9.83329 1.66665C9.83329 1.88766 9.92109 2.09962 10.0774 2.2559C10.2337 2.41218 10.4456 2.49998 10.6666 2.49998H13.1666C13.8297 2.49998 14.4656 2.76337 14.9344 3.23221C15.4032 3.70105 15.6666 4.33694 15.6666 4.99998C15.6666 5.66302 15.4032 6.29891 14.9344 6.76775C14.4656 7.23659 13.8297 7.49998 13.1666 7.49998H10.6666C10.4456 7.49998 10.2337 7.58778 10.0774 7.74406C9.92109 7.90034 9.83329 8.1123 9.83329 8.33331C9.83329 8.55433 9.92109 8.76629 10.0774 8.92257C10.2337 9.07885 10.4456 9.16665 10.6666 9.16665H13.1666C14.2717 9.16665 15.3315 8.72766 16.1129 7.94626C16.8943 7.16486 17.3333 6.10505 17.3333 4.99998C17.3333 3.89491 16.8943 2.8351 16.1129 2.0537C15.3315 1.2723 14.2717 0.833313 13.1666 0.833313V0.833313Z" fill="#3D3D3D"/>
</svg>
